PathFileType	4	(X/Y/Z)	C:\Users\°ÂÌØÂü\Desktop\20210112\bx_y_10_501-Unnamed.trc
DataRate	CameraRate	NumFrames	NumMarkers	Units	OrigDataRate	OrigDataStartFrame	OrigNumFrames
50.00	50.00	       8	0	mm	50.00	1	       537
Frame#	Time	
		

1	0.000	-678.20221	-72.05488	1548.39758	-699.83777	282.29916	1534.26843	-587.14258	-5.79491	1046.91699	-581.31970	219.97577	1066.38684	-637.47968	278.73804	875.00885	-582.42578	-3.99905	801.11517	-581.43555	213.81563	814.39594	-721.27118	248.18330	640.31006	-690.44110	82.00426	574.98175	-688.40515	140.51852	574.17010	-667.25720	20.67334	519.43817	-727.43732	242.93987	575.85968	-770.52209	252.53180	503.62192	-674.92200	203.33223	532.41284	-716.21075	81.36088	215.56471	-664.93707	-65.10316	164.59200	-711.22876	151.21683	216.13895	-771.53540	220.88908	205.12228	-882.49469	296.04074	144.63200	-674.13312	58.36698	155.81140	-602.66736	19.95701	165.53091	-675.25226	171.56773	156.53758	-594.85229	222.54338	173.48900	-667.05139	298.01041	160.56755	-629.89465	306.35165	161.87022	-561.10931	262.32114	165.46928	-528.01434	304.31531	146.82832	-664.70575	110.13665	1849.50635				-689.19873	270.75406	748.69086	-517.77618	-72.50307	142.50648	-561.70856	-42.93849	163.61729	-796.13379	171.09645	184.36005	-793.67047	58.82102	175.56075	-787.01025	92.57932	1058.90820	-762.26025	-33.30268	488.13809	-766.49524	-2.64670	207.65953	-876.02472	-78.50606	141.58060	-701.15491	-27.78854	615.35388	-715.14270	-23.28580	566.53790	-624.13623	-77.05816	160.31601	-600.91040	102.97134	1428.09924	-644.48578	-68.36195	867.03992	
2	0.020	-678.07477	-72.18282	1548.53223	-699.98401	282.35281	1534.45703	-587.41431	-5.82417	1046.97363	-581.61658	220.05405	1066.53027	-637.74445	278.85233	874.95392	-582.56439	-3.93490	801.05249	-581.50909	213.87822	814.43909	-721.26654	248.17714	640.32465	-690.94568	81.98451	575.02850	-688.36566	140.62793	574.26538	-667.60413	20.83729	519.08130	-727.64264	243.05495	576.14258	-770.52209	252.53180	503.62192	-675.03406	203.13181	532.29169	-716.08636	81.44004	215.68753	-664.92084	-65.11668	164.67024	-711.22876	151.21683	216.13895	-771.29694	220.85042	205.01414	-882.48578	296.13718	144.66689	-673.92401	58.17691	155.86929	-602.69897	20.13507	165.49104	-675.03290	171.54530	156.82422	-594.67035	222.61949	173.46472	-666.99780	298.04553	160.48161	-630.09998	306.10489	161.79863	-561.10931	262.32114	165.46928	-528.14166	304.37292	146.57095	-664.68512	110.03020	1849.39392				-689.51544	271.05859	748.64929	-517.72174	-72.61513	142.64165	-561.76563	-42.91300	163.41911	-796.09937	170.85500	184.40521	-793.67047	58.82102	175.56075	-787.24585	92.30680	1058.79150	-762.52759	-33.32770	488.14413	-766.49524	-2.64670	207.65953	-876.02838	-78.54763	141.55200	-701.15491	-27.78854	615.35388	-715.20233	-23.23989	566.42865	-624.05029	-77.01037	160.24690	-600.82666	103.00171	1428.13953	-644.66241	-68.43206	867.03015	
3	0.040	-677.90686	-72.32855	1548.50879	-700.10797	282.07635	1534.47241	-587.64984	-5.67365	1046.84253	-582.02698	219.82077	1066.31860	-638.05859	278.94434	874.96198	-582.56439	-3.93490	801.05249	-581.56158	214.14500	814.42767	-721.33801	248.05608	640.22742	-691.02838	81.80458	574.88922	-688.36566	140.62793	574.26538	-667.56354	20.73721	519.22961	-727.76556	243.35660	576.10535	-770.54901	252.24017	503.43546	-675.15381	203.48232	532.34418	-715.96960	81.33503	215.80739	-664.88861	-65.15401	164.92009	-711.31158	151.25658	216.20349	-771.44458	220.84256	204.96051	-882.51776	296.06790	144.63388	-674.30499	57.97223	155.71930	-602.74640	19.99023	165.51192	-675.25226	171.56773	156.53758	-594.77515	222.60782	173.50543	-667.12219	298.19931	160.44713	-630.08160	306.18784	161.60847	-561.23663	262.28961	165.33249	-528.03156	304.52658	146.55516	-664.75250	109.98344	1849.44824				-689.61993	271.10315	748.83051	-517.66736	-72.72713	142.77681	-561.62427	-42.99673	163.69160	-796.08612	170.82475	184.30504	-793.71625	58.88486	175.54958	-787.33606	92.37255	1058.89624	-762.45142	-33.26001	488.07602	-766.49524	-2.64670	207.65953	-876.18079	-78.60561	141.78276	-701.07867	-27.57492	615.43402	-715.40216	-23.15006	566.47620	-624.05029	-77.01037	160.24690	-600.89093	102.90531	1428.21924	-644.66687	-68.19467	866.86023	
4	0.060	-677.79913	-72.39034	1548.54053	-699.85065	283.06653	1535.20422	-587.86346	-5.38468	1046.89917	-582.04559	219.93610	1066.45605	-638.19458	279.13107	874.82721	-582.70618	-4.01080	801.34631	-581.70282	214.54211	814.46100	-721.33881	248.11630	640.15741	-691.32159	81.89587	574.92737	-688.60095	140.49672	574.35712	-667.84644	20.86676	519.08386	-727.71631	243.27121	576.24487	-770.81329	252.52292	503.43927	-675.31250	203.42906	532.20624	-715.96960	81.33503	215.80739	-664.96198	-65.05293	164.69781	-711.31158	151.25658	216.20349	-771.64844	220.75737	205.05923	-882.49762	296.12241	144.70863	-674.30499	57.97223	155.71930	-602.54114	20.14150	165.50029	-675.17212	171.58476	156.65622	-594.77515	222.60782	173.50543	-667.02533	298.21899	160.58162	-629.92480	306.30109	161.95764	-561.10333	262.31891	165.51193	-528.03156	304.52658	146.55516	-664.78058	109.80844	1849.42310				-689.88293	271.37393	748.86090	-517.66736	-72.72713	142.77681	-561.68591	-42.89618	163.59894	-796.08868	171.11485	184.41226	-793.67047	58.82102	175.56075	-787.60406	92.48219	1058.80115	-762.44305	-33.17148	488.15100	-766.55438	-2.59145	207.60628	-876.03320	-78.59757	141.50241	-701.07867	-27.57492	615.43402	-715.46790	-23.28635	566.56079	-623.74951	-76.71091	159.85025	-601.34241	102.69495	1428.16040	-644.86310	-68.14716	866.90405	
5	0.080	-677.85291	-72.35967	1548.59192	-699.72510	283.71408	1536.54272	-588.16272	-5.41527	1046.84851	-582.14630	220.07022	1066.41809	-638.22247	279.06317	874.89752	-582.33954	-4.54046	801.12604	-582.19806	214.05191	814.49304	-721.55481	248.05244	640.25275	-690.80133	81.93208	575.18347	-688.60095	140.49672	574.35712	-668.16547	21.16603	518.93896	-727.94263	243.31020	576.15826	-770.81256	252.27106	503.55640	-675.39893	203.35872	532.25836	-716.09393	81.25587	215.68459	-664.96899	-64.94956	164.69635	-711.22876	151.21683	216.13895	-771.52863	220.89273	205.13271	-882.55603	296.02304	144.55736	-673.98053	58.37054	156.01694	-602.51318	20.07587	165.53854	-675.38373	171.58023	156.65527	-594.85229	222.54338	173.48900	-667.09259	298.38535	160.66724	-630.06976	306.15546	161.71120	-561.16034	262.28436	165.40683	-528.16150	304.17200	146.42805	-664.89606	109.86710	1849.54736				-690.13715	271.45169	748.89740	-517.72485	-72.97910	142.87009	-561.73254	-42.92150	163.52992	-796.11542	170.97195	184.40494	-793.65002	58.69031	175.60622	-787.77423	92.46788	1058.93140	-762.54193	-33.24190	488.12762	-766.49524	-2.64670	207.65953	-876.03320	-78.59757	141.50241	-701.16699	-27.53028	615.34692	-715.66199	-23.46319	566.40295	-623.94757	-76.89373	160.34151	-600.86676	102.82293	1428.36902	-644.98157	-68.18922	866.97473	
6	0.100	-677.70648	-72.34226	1548.58667	-699.73395	283.63013	1536.74377	-588.28741	-5.22447	1046.92859	-582.34241	220.15373	1066.35974	-638.32227	279.24774	874.93188	-582.37024	-4.55833	801.21344	-582.51367	214.55728	814.64563	-721.61194	248.43355	640.39020	-691.14941	81.88914	575.08069	-688.73047	140.65985	574.33679	-668.14191	21.26237	519.08435	-728.13232	243.57272	576.36194	-771.05560	252.58755	503.36566	-675.30841	203.34059	532.25232	-715.96960	81.33503	215.80739	-665.01459	-65.14536	164.81783	-711.22876	151.21683	216.13895	-771.48499	220.85439	205.08945	-882.55182	296.12781	144.71487	-674.39545	58.04897	155.55556	-602.66699	19.97871	165.42540	-675.22443	171.50066	156.60921	-594.85229	222.54338	173.48900	-667.18695	298.15466	160.56540	-630.09998	306.10489	161.79863	-561.19843	262.23511	165.48723	-527.99908	304.58014	146.82976	-664.87897	109.59955	1849.51917				-690.13715	271.45169	748.89740	-517.72980	-72.69471	142.77153	-561.73254	-42.92150	163.52992	-796.20569	171.03809	184.40999	-793.64539	58.75811	175.54109	-787.77814	92.42745	1058.84253	-762.58948	-33.18643	488.04242	-766.53656	-2.61797	207.58743	-876.13934	-78.71100	141.67271	-701.25629	-27.58287	615.37189	-715.66827	-23.30717	566.48651	-623.94757	-76.89373	160.34151				-645.02863	-68.22437	867.27808	
7	0.120	-677.64398	-72.33723	1548.66003	-700.04578	283.38898	1536.81860	-588.40649	-5.12690	1046.86340	-582.46118	220.29692	1066.47449	-638.38306	279.11273	875.11383	-582.52423	-4.56774	801.24872	-582.61029	214.43462	814.62610	-721.91278	248.63097	640.33173	-691.32159	81.89587	574.92737	-689.01685	140.73039	574.46417	-668.15009	21.20242	519.25006	-728.03571	243.40968	576.16309	-770.90570	252.77171	503.58920	-675.55670	203.37245	532.38605	-716.21075	81.36088	215.56471	-664.96899	-64.94956	164.69635	-711.22876	151.21683	216.13895	-771.53583	220.94754	204.93999	-882.50659	296.28424	144.83293	-674.30499	57.97223	155.71930	-602.69348	20.26521	165.63649	-675.16437	171.55780	156.94189	-594.85229	222.54338	173.48900	-667.03357	298.08618	160.46982	-630.11774	306.18018	161.72299	-561.17566	262.29141	165.59282	-527.92041	304.46118	146.97287	-664.99280	109.32829	1849.60388				-690.13715	271.45169	748.89740	-517.77618	-72.50307	142.50648	-561.65491	-42.86916	163.42664	-796.18384	170.89638	184.27451	-793.71942	58.79907	175.51619	-788.03119	92.43812	1059.12695	-762.61060	-33.27238	488.26547	-766.57324	-2.71722	207.53006	-876.03320	-78.59757	141.50241	-701.27661	-27.40478	615.32080	-715.75287	-23.29835	566.41864	-624.05029	-77.01037	160.24690				-645.19446	-68.04826	867.14020	
8	0.140	-677.36273	-72.45858	1548.72192	-699.98584	283.66397	1536.78931	-588.59357	-5.01137	1046.83618	-582.58350	220.34464	1066.41333	-638.72095	279.51312	875.00555	-582.72211	-4.50934	801.20459	-582.79431	214.53088	814.77618	-721.91931	248.61644	640.20490	-691.54913	82.00124	574.95782	-689.22076	140.77499	574.31342	-668.13800	21.11334	519.38934	-728.16235	243.79405	576.53680	-771.03485	252.52658	503.34988	-675.59174	203.45195	532.28900	-716.09393	81.25587	215.68459	-664.90527	-65.05202	164.79028	-711.32343	151.13821	216.19156	-771.46838	220.77501	205.03510	-882.54730	296.17606	144.64073	-674.30499	57.97223	155.71930	-602.73584	20.23718	165.63052	-675.30359	171.59724	156.77390	-594.77515	222.60782	173.50543	-667.09290	298.25751	160.40839	-630.09534	306.29160	161.59763	-561.23694	262.28278	165.66136	-527.99902	304.12732	146.59570	-665.04437	109.28767	1849.55334				-690.42279	271.53146	749.02875	-517.66736	-72.72713	142.77681	-561.77954	-42.93854	163.43848	-796.05829	170.94577	184.24391	-793.81970	58.77991	175.55507	-787.97009	92.53202	1059.01636	-762.67743	-33.26070	488.19464	-766.49524	-2.64670	207.65953	-875.98657	-78.65415	141.42352	-701.42621	-27.42606	615.28729	-715.65594	-23.38655	566.46899	-623.76343	-76.62136	159.85899				-645.47650	-67.92445	867.05890	
